<svg width="29" height="32" viewBox="0 0 29 32" fill="none" xmlns="http://www.w3.org/2000/svg">
<path d="M18.7585 25.7388V28.6666C18.7585 29.4951 18.087 30.1666 17.2585 30.1666H3.87953C3.14381 30.1666 2.51669 29.633 2.39888 28.9068C2.32484 28.4503 2.32573 28.0985 2.34264 27.7838C2.34863 27.6724 2.35481 27.5837 2.36037 27.504C2.37113 27.3497 2.37953 27.2293 2.37953 27.0437C2.37953 24.3769 3.19308 21.5048 4.55898 18.9887C5.90542 16.5085 7.85087 14.2611 10.2474 12.891C10.5394 12.6759 10.8581 12.5163 11.1832 12.4117C11.3374 12.3467 11.5001 12.3087 11.6644 12.2975C12.3371 12.179 13.0525 12.2595 13.6936 12.5537C13.5829 12.39 13.4808 12.2201 13.3877 12.0446L13.0574 12.1251C12.7858 12.195 12.5039 12.2146 12.2264 12.1837C11.942 12.1521 11.663 12.0675 11.4059 11.9313C11.1485 11.7949 10.9154 11.6078 10.7246 11.3757C10.5338 11.1435 10.3897 10.8714 10.3075 10.5736L18.7585 25.7388ZM18.7585 25.7388C19.0167 25.8149 19.2874 25.855 19.5622 25.855C20.0285 25.855 20.4835 25.7406 20.8863 25.5314V28.6666C20.8863 29.4951 21.5579 30.1666 22.3863 30.1666H24.9242C25.7526 30.1666 26.4242 29.4951 26.4242 28.6666V23.1676C26.4415 21.87 25.7 20.7138 24.9011 19.9531C24.0868 19.1777 22.9023 18.5128 21.6184 18.5128C21.3805 18.5128 21.1476 18.5311 20.9206 18.5665L16.4327 14.7319C17.1534 15.0181 17.9402 15.1742 18.7553 15.1742C21.9573 15.1742 24.7583 12.7455 24.7583 9.50795C24.7583 9.41198 24.7557 9.31634 24.7506 9.22113M18.7585 25.7388L24.7506 9.22113M24.7506 9.22113L25.29 9.08547L25.3042 9.08184C26.3822 8.79957 27.3141 7.66502 26.9079 6.32878C26.8028 5.97406 26.6048 5.72736 26.4774 5.59071C26.3348 5.43777 26.1824 5.31902 26.0551 5.23112C25.7999 5.05495 25.5143 4.91347 25.2568 4.80728C24.9948 4.69927 24.7073 4.60542 24.4284 4.54503C24.3299 4.5237 24.1831 4.49478 24.0094 4.48044L23.5273 3.9746C23.4977 3.93009 23.473 3.89799 23.4625 3.8845C23.4317 3.84487 23.4056 3.81553 23.3981 3.80704C23.3867 3.79423 23.3772 3.78408 23.3717 3.7782C23.3606 3.76631 23.3514 3.75692 23.3467 3.75215C23.3296 3.73466 23.3132 3.71872 23.304 3.70992C23.2607 3.66804 23.1843 3.5965 23.0677 3.49091C23.0195 3.44726 22.9692 3.40732 22.9172 3.37108C22.8422 3.30354 22.7602 3.23147 22.6738 3.15815C22.4154 2.93877 22.0314 2.6333 21.6403 2.42255L21.6355 2.41996C21.3775 2.28214 21.1258 2.23116 20.9785 2.20781C20.8105 2.18118 20.6429 2.17083 20.492 2.16772C20.1895 2.16148 19.8492 2.18263 19.5057 2.21802C18.8128 2.28938 17.983 2.43181 17.1683 2.61613C16.3561 2.7999 15.5137 3.03551 14.8054 3.30528C14.4528 3.43958 14.1009 3.59456 13.7911 3.77233C13.5157 3.93035 13.1207 4.19067 12.8407 4.59127L12.8406 4.59124L12.8335 4.60163C12.3927 5.24355 12.205 5.95311 12.1371 6.20969C12.1333 6.22402 12.1299 6.23695 12.1268 6.24836C12.1206 6.27167 12.1149 6.29512 12.1097 6.3187L11.8451 7.53519C11.7211 7.61925 11.6227 7.70094 11.5549 7.75942C11.3366 7.9478 11.131 8.16988 10.9568 8.39127C10.7855 8.60897 10.6075 8.8731 10.4744 9.15592C10.4079 9.29729 10.3355 9.47915 10.2903 9.68732C10.2482 9.88118 10.2058 10.2048 10.3072 10.5724L24.7506 9.22113ZM23.3086 3.71538C23.3087 3.71555 23.3067 3.71362 23.302 3.70909C23.3061 3.71294 23.3084 3.71521 23.3086 3.71538Z" stroke="#47277D" stroke-width="3" stroke-linejoin="round"/>
</svg>
