<svg width="36" height="29" viewBox="0 0 36 29" fill="none" xmlns="http://www.w3.org/2000/svg">
<path d="M22 26.6666C22 22.9847 17.5228 20 12 20C6.47715 20 2 22.9847 2 26.6666M12 15C8.3181 15 5.33333 12.0152 5.33333 8.33329C5.33333 4.65139 8.3181 1.66663 12 1.66663C15.6819 1.66663 18.6667 4.65139 18.6667 8.33329C18.6667 12.0152 15.6819 15 12 15ZM28.6667 20C30.0887 19.5065 33.9995 16.6693 33.6439 14.0789C33.2256 11.0308 29.7332 11.1183 28.6667 12.9687C27.6001 11.1183 24.1077 11.0308 23.6894 14.0789C23.3339 16.6693 27.2446 19.5065 28.6667 20Z" stroke="#47277D" stroke-width="3" stroke-linecap="round" stroke-linejoin="round"/>
</svg>
