<svg width="49" height="48" viewBox="0 0 49 48" fill="none" xmlns="http://www.w3.org/2000/svg">
<path d="M34.5751 9.2685L33.8968 8.55667C33.8613 8.50127 33.8303 8.46107 33.8183 8.44553C33.7874 8.40589 33.7613 8.37652 33.7537 8.368C33.7423 8.35516 33.7328 8.34498 33.7273 8.33905C33.7161 8.32709 33.7068 8.31759 33.702 8.3127C33.6843 8.29468 33.667 8.27783 33.6565 8.2677C33.6077 8.22051 33.5186 8.13704 33.38 8.01155C33.3272 7.96374 33.2719 7.92039 33.2146 7.88147C33.123 7.79867 33.0216 7.70948 32.9145 7.61854C32.6079 7.35829 32.1667 7.0086 31.7262 6.77121L31.7213 6.76862C31.4545 6.62611 31.1903 6.57157 31.0273 6.54572C30.8436 6.51659 30.657 6.50481 30.4843 6.50124C30.1383 6.49411 29.7433 6.51831 29.3377 6.56009C28.5206 6.64425 27.5369 6.81287 26.5683 7.032C25.6022 7.25059 24.6059 7.52965 23.7734 7.84673C23.3587 8.00469 22.9521 8.18429 22.5988 8.38705C22.2798 8.57006 21.8524 8.85574 21.5548 9.28147L21.5547 9.28144L21.5476 9.29182C21.0492 10.0177 20.8352 10.8245 20.754 11.1308C20.7497 11.1474 20.7457 11.1624 20.742 11.1759C20.7358 11.1992 20.7301 11.2227 20.7249 11.2463L20.3811 12.8267C20.2018 12.9378 20.0588 13.0549 19.962 13.1385C19.7168 13.3501 19.4831 13.602 19.284 13.8551C19.0879 14.1044 18.8882 14.4019 18.7409 14.7149C18.6672 14.8714 18.5896 15.0675 18.5416 15.2885C18.4967 15.4954 18.4539 15.8309 18.5583 16.2085L34.5751 9.2685ZM34.5751 9.2685C34.8094 9.27871 35.0136 9.31761 35.1507 9.34729C35.4654 9.41544 35.7933 9.52224 36.0939 9.64614C36.39 9.76822 36.7122 9.92856 36.9958 10.1243C37.1373 10.222 37.3017 10.3507 37.4535 10.5135C37.5901 10.66 37.7948 10.9169 37.9025 11.2817C38.3312 12.6927 37.35 13.9041 36.1891 14.208L36.175 14.2117L35.2831 14.4359C35.301 14.6256 35.31 14.817 35.31 15.0096C35.31 18.7073 32.1056 21.5091 28.4064 21.5091C25.6745 21.5091 23.231 19.9905 22.1257 17.7057L21.496 17.8592M34.5751 9.2685L21.496 17.8592M21.496 17.8592C21.2049 17.9343 20.9026 17.9555 20.6049 17.9223C20.3006 17.8885 20.0023 17.798 19.7276 17.6525C19.4528 17.5069 19.2043 17.3074 19.0013 17.0604C18.7986 16.8137 18.6459 16.525 18.5586 16.2096L21.496 17.8592ZM28.1103 38V34.0581C28.5022 34.2317 28.9329 34.3261 29.3747 34.3261C30.0661 34.3261 30.7317 34.0975 31.2636 33.6949V38C31.2636 38.8284 31.9352 39.5 32.7636 39.5H35.8092C36.6376 39.5 37.3092 38.8284 37.3092 38V31.399C37.3291 29.9558 36.5003 28.6424 35.5746 27.761C34.6333 26.8648 33.2823 26.1154 31.8422 26.1154C31.525 26.1154 31.2162 26.144 30.9166 26.199L23.1391 19.5537C22.2469 18.7398 21.0388 18.4556 19.9331 18.6554C19.7596 18.6654 19.5876 18.7054 19.4253 18.7754C19.0555 18.8927 18.6926 19.0744 18.3612 19.3209C15.5382 20.93 13.2336 23.584 11.6345 26.5297C10.0155 29.512 9.05553 32.9097 9.05553 36.0525C9.05553 36.2853 9.04456 36.4433 9.03125 36.6348C9.02467 36.7295 9.01751 36.8324 9.01084 36.9567C8.99133 37.3198 8.99043 37.7195 9.07489 38.2402C9.19269 38.9664 9.81982 39.5 10.5555 39.5H26.6103C27.4388 39.5 28.1103 38.8284 28.1103 38ZM19.5437 18.735L19.5396 18.7363C19.5431 18.7351 19.5459 18.7343 19.5437 18.735ZM33.6606 8.27302C33.6608 8.27316 33.659 8.27147 33.6549 8.26754C33.6585 8.2709 33.6605 8.27287 33.6606 8.27302Z" stroke="#846EA8" stroke-width="3" stroke-linejoin="round"/>
</svg>
