<svg width="49" height="48" viewBox="0 0 49 48" fill="none" xmlns="http://www.w3.org/2000/svg">
<path d="M30.5 38C30.5 33.5817 25.1274 30 18.5 30C11.8726 30 6.5 33.5817 6.5 38M18.5 24C14.0817 24 10.5 20.4183 10.5 16C10.5 11.5817 14.0817 8 18.5 8C22.9183 8 26.5 11.5817 26.5 16C26.5 20.4183 22.9183 24 18.5 24ZM38.5 30C40.2065 29.4079 44.8993 26.0032 44.4727 22.8947C43.9707 19.237 39.7799 19.342 38.5 21.5624C37.2201 19.342 33.0293 19.237 32.5273 22.8947C32.1007 26.0032 36.7935 29.4079 38.5 30Z" stroke="#846EA8" stroke-width="3" stroke-linecap="round" stroke-linejoin="round"/>
</svg>
