<svg width="49" height="48" viewBox="0 0 49 48" fill="none" xmlns="http://www.w3.org/2000/svg">
<path d="M42.5 39.9999C42.5 36.5166 39.1608 33.5533 34.5 32.4551M30.5 40C30.5 35.5817 25.1274 32 18.5 32C11.8726 32 6.5 35.5817 6.5 40M30.5 26C34.9183 26 38.5 22.4183 38.5 18C38.5 13.5817 34.9183 10 30.5 10M18.5 26C14.0817 26 10.5 22.4183 10.5 18C10.5 13.5817 14.0817 10 18.5 10C22.9183 10 26.5 13.5817 26.5 18C26.5 22.4183 22.9183 26 18.5 26Z" stroke="#846EA8" stroke-width="3" stroke-linecap="round" stroke-linejoin="round"/>
</svg>
